<svg width="80" height="596" viewBox="0 0 80 596" fill="none" xmlns="http://www.w3.org/2000/svg">
<mask id="path-1-inside-1" fill="white">
<path fill-rule="evenodd" clip-rule="evenodd" d="M80 571V25V23H79.8739C78.2437 10.128 61.0142 0 40 0C18.9858 0 1.75633 10.128 0.126136 23H0V25V571V573H0.126136C1.75633 585.872 18.9858 596 40 596C61.0142 596 78.2437 585.872 79.8739 573H80V571Z"/>
</mask>
<path fill-rule="evenodd" clip-rule="evenodd" d="M80 571V25V23H79.8739C78.2437 10.128 61.0142 0 40 0C18.9858 0 1.75633 10.128 0.126136 23H0V25V571V573H0.126136C1.75633 585.872 18.9858 596 40 596C61.0142 596 78.2437 585.872 79.8739 573H80V571Z" fill="#7F7F7F"/>
<path d="M80 23H81V22H80V23ZM79.8739 23L78.8818 23.1256L78.9925 24H79.8739V23ZM0.126136 23V24H1.00748L1.11821 23.1256L0.126136 23ZM0 23V22H-1V23H0ZM0 573H-1V574H0V573ZM0.126136 573L1.11821 572.874L1.00748 572H0.126136V573ZM79.8739 573V572H78.9925L78.8818 572.874L79.8739 573ZM80 573V574H81V573H80ZM79 25V571H81V25H79ZM79 23V25H81V23H79ZM79.8739 24H80V22H79.8739V24ZM40 1C50.3559 1 59.7389 3.49717 66.7041 7.53798C73.6856 11.5882 78.1198 17.1093 78.8818 23.1256L80.8659 22.8744C79.9977 16.0187 75.0021 10.0398 67.7078 5.80802C60.3972 1.56683 50.6584 -1 40 -1V1ZM1.11821 23.1256C1.88017 17.1093 6.3144 11.5882 13.2959 7.53798C20.2611 3.49717 29.6441 1 40 1V-1C29.3416 -1 19.6028 1.56683 12.2922 5.80802C4.99787 10.0398 0.00230197 16.0187 -0.86594 22.8744L1.11821 23.1256ZM0 24H0.126136V22H0V24ZM1 25V23H-1V25H1ZM1 571V25H-1V571H1ZM1 573V571H-1V573H1ZM0.126136 572H0V574H0.126136V572ZM40 595C29.6441 595 20.2611 592.503 13.2959 588.462C6.3144 584.412 1.88017 578.891 1.11821 572.874L-0.86594 573.126C0.00230121 579.981 4.99787 585.96 12.2922 590.192C19.6028 594.433 29.3416 597 40 597V595ZM78.8818 572.874C78.1198 578.891 73.6856 584.412 66.7041 588.462C59.7389 592.503 50.3559 595 40 595V597C50.6584 597 60.3972 594.433 67.7078 590.192C75.0021 585.96 79.9977 579.981 80.8659 573.126L78.8818 572.874ZM80 572H79.8739V574H80V572ZM79 571V573H81V571H79Z" fill="black" mask="url(#path-1-inside-1)"/>
</svg>
